TiTLE......[ The Losers
YEAR.......[ 2010
GENRE......[ Action | Adventure | Crime | Mystery | Thriller
RUNTiME....[ 1:29:39
iMDB RATE..[ User Rating: 7.0/10   1,665 votes
iMDB URL...[ http://www.imdb.com/title/tt0480255/


Source : b0ngw4t3r (thanks)
General
Complete name : The.Losers.2010.Cam.XviD.TA.avi
Format : AVI
Format/Info : Audio Video Interleave
File size : 839 MiB
Duration : 1h 29mn
Overall bit rate : 1 307 Kbps
Writing library : VirtualDub build 32661/release

Video
ID : 0
Format : MPEG-4 Visual
Format profile : AdvancedSimple@L5
Format settings, BVOP : Yes
Format settings, QPel : No
Format settings, GMC : No warppoints
Format settings, Matrix : Default (H.263)
Muxing mode : Packed bitstream
Codec ID : XVID
Codec ID/Hint : XviD
Duration : 1h 29mn
Bit rate : 1 103 Kbps
Width : 656 pixels
Height : 368 pixels
Display aspect ratio : 16:9
Frame rate : 29.970 fps
Resolution : 24 bits
Colorimetry : 4:2:0
Scan type : Progressive
Bits/(Pixel*Frame) : 0.152
Stream size : 708 MiB (84%)
Writing library : XviD 1.2.1 (UTC 2008-12-04)

Audio
ID : 1
Format : MPEG Audio
Format version : Version 1
Format profile : Layer 3
Codec ID : 55
Codec ID/Hint : MP3
Duration : 1h 29mn
Bit rate mode : Constant
Bit rate : 192 Kbps
Channel(s) : 2 channels
Sampling rate : 44.1 KHz
Resolution : 16 bits
Video delay : 26ms
Stream size : 123 MiB (15%)
Alignment : Split accross interleaves
Interleave, duration : 33 ms (1.00 video frame)
Interleave, preload duration : 500 ms


SCREENS:
http://bayimg.com/FaMNlaAcE

----------------------------------------------------------------------------------
----------------------------------------------------------------------------------

For more movie information or upcoming movies join channel #NP (irc.efnet.nl)